<svg width="360" height="83" viewBox="0 0 360 83" fill="none" xmlns="http://www.w3.org/2000/svg">
<g clip-path="url(#clip0_41_141)">
<path d="M37.0523 0.835938C37.9833 0.835938 38.8465 1.03549 39.659 1.41797C40.4715 1.80045 41.1486 2.33259 41.6902 2.98114C42.2319 3.64632 42.6381 4.39465 42.8751 5.22612C43.1121 6.07423 43.129 6.93896 42.9259 7.85358L38.1356 31.5007C37.8648 32.9142 37.1708 34.0616 36.0536 34.943C34.9364 35.8244 33.65 36.2567 32.2112 36.2567H6.02539C5.06056 36.2567 4.18036 36.0572 3.36787 35.6747C2.55538 35.2922 1.89524 34.7601 1.35358 34.1115C0.828845 33.4464 0.439528 32.698 0.185625 31.8333C-0.0513505 30.9686 -0.0852042 30.0872 0.0840642 29.1726L4.94207 5.59197C5.2129 4.17846 5.9069 3.03103 7.00714 2.14967C8.10739 1.2683 9.3769 0.835938 10.8157 0.835938H37.0354H37.0523ZM8.66597 9.08416L14.6919 10.8635L11.4928 26.6116C11.425 26.9775 11.4928 27.3101 11.7467 27.5928C11.9836 27.8755 12.2883 28.0251 12.6776 28.0251H34.3778L28.4027 26.2458L31.6018 10.4977C31.6695 10.1318 31.5849 9.79923 31.3479 9.51653C31.111 9.23383 30.7894 9.08416 30.417 9.08416H8.66597Z" fill="white"/>
<path d="M56.6372 26.5941C56.5695 26.9599 56.6372 27.2925 56.8911 27.5752C57.1281 27.8579 57.4328 28.0076 57.8221 28.0076H66.8441C67.4704 28.0076 67.8597 27.6916 68.029 27.0431L71.3297 10.8459L77.3049 9.06659H61.3259L63.0186 0.818359H84.1433L77.9142 31.4998C77.6434 32.9133 76.9494 34.0607 75.8492 34.9421C74.7489 35.8234 73.4794 36.2558 72.0406 36.2558H51.1698C50.205 36.2558 49.3248 36.0562 48.5123 35.6738C47.6998 35.2913 47.0397 34.7591 46.498 34.1106C45.9733 33.4454 45.584 32.6971 45.3301 31.8324C45.0931 30.9676 45.0592 30.0863 45.2285 29.1716L46.5657 22.6861H57.382L56.6033 26.5774L56.6372 26.5941Z" fill="white"/>
<path d="M86.4115 28.4732L86.9701 25.6296H97.7863L97.5832 26.5941C97.5155 26.9599 97.5832 27.2925 97.8371 27.5752C98.0741 27.8579 98.3788 28.0076 98.7681 28.0076H119.063L113.037 26.2282L113.596 23.501C113.664 23.1351 113.579 22.8025 113.342 22.5198C113.105 22.2371 112.784 22.0875 112.411 22.0875H95.7213C94.6887 22.0875 93.7239 21.8713 92.8437 21.4223C91.9635 20.9733 91.2187 20.4079 90.6263 19.6928C90.0339 18.9778 89.6276 18.1629 89.3568 17.215C89.1029 16.2672 89.069 15.286 89.2722 14.2716L90.9141 6.02339C91.2187 4.51011 91.9804 3.26289 93.1992 2.28175C94.4179 1.30061 95.8228 0.818359 97.397 0.818359H121.196C122.229 0.818359 123.194 1.03454 124.074 1.48354C124.971 1.91591 125.699 2.49794 126.291 3.21301C126.867 3.92807 127.307 4.74292 127.578 5.67417C127.848 6.60542 127.882 7.56993 127.679 8.58433L127.053 11.4612H116.237L116.44 10.4967C116.507 10.1309 116.423 9.79828 116.186 9.51558C115.949 9.23288 115.627 9.08321 115.255 9.08321H94.7395L100.715 10.8626L100.308 12.9911C100.241 13.357 100.308 13.6896 100.562 13.9723C100.799 14.255 101.104 14.4047 101.493 14.4047H117.675L118.657 14.4545C119.656 14.5211 120.553 14.7871 121.365 15.2361C122.178 15.6851 122.855 16.2672 123.397 16.9822C123.938 17.6973 124.345 18.4955 124.582 19.3935C124.819 20.2915 124.835 21.2227 124.632 22.2039L122.838 31.0674C122.533 32.5807 121.772 33.8279 120.553 34.809C119.334 35.7902 117.929 36.2724 116.355 36.2724H92.8099C91.7773 36.2724 90.8125 36.0562 89.9323 35.6072C89.0521 35.1582 88.3073 34.5928 87.7149 33.8778C87.1224 33.1627 86.7162 32.3479 86.4454 31.4C86.1915 30.4521 86.1576 29.471 86.3607 28.4732H86.4115Z" fill="white"/>
<path d="M37.256 47.4004H48.0722L40.8614 82.8378H22.2588L16.5375 54.8005H10.1561L16.1821 56.5799L10.8162 82.8545H0L7.21083 47.417H25.8642L31.5855 75.4543L37.256 47.417V47.4004Z" fill="white"/>
<path d="M81.1981 82.8378H56.214C55.2492 82.8378 54.369 82.6383 53.5565 82.2558C52.744 81.8733 52.0839 81.3412 51.5422 80.6926C51.0175 80.0274 50.6282 79.2791 50.3743 78.4144C50.1373 77.5497 50.1035 76.6683 50.2727 75.7537L56.0448 47.4004H66.861L61.7153 72.8102L55.6893 74.5896H75.9846C76.2554 74.5896 76.5093 74.4898 76.7294 74.3069C76.9494 74.124 77.1018 73.8912 77.1695 73.6251L82.5353 47.4004H93.3515L87.1225 78.0818C86.8516 79.4953 86.1576 80.6427 85.0405 81.5241C83.9233 82.4055 82.6368 82.8378 81.1981 82.8378Z" fill="white"/>
<path d="M98.9204 47.4004H135.702L134.01 55.6486H115.61L121.636 57.428L116.44 82.8378H104.439L109.957 55.6486H97.2278L98.9204 47.4004Z" fill="white"/>
<path d="M162.041 72.8102H148.855L146.79 82.8378H135.973L143.184 47.4004H177.918C178.883 47.4004 179.763 47.5999 180.576 47.9824C181.388 48.3649 182.048 48.897 182.59 49.5456C183.115 50.2108 183.504 50.9591 183.758 51.7906C183.995 52.6387 184.029 53.5034 183.859 54.418L181.083 68.0376C180.812 69.4178 180.118 70.5653 179.018 71.4466C177.918 72.3446 176.648 72.7936 175.21 72.7936H172.891L177.478 82.8212H166.662L162.074 72.7936L162.041 72.8102ZM169.979 64.5121C170.25 64.5121 170.504 64.429 170.724 64.2627C170.944 64.0964 171.096 63.8802 171.164 63.5975L172.451 57.0621C172.518 56.6963 172.451 56.3637 172.214 56.081C171.994 55.7983 171.689 55.6486 171.317 55.6486H145.96L151.935 57.428L150.497 64.5121H169.979Z" fill="white"/>
<path d="M186.06 82.8378L193.271 47.4004H204.087L202.394 55.6486H196.064L202.039 57.428L196.893 82.8378H186.077H186.06Z" fill="white"/>
<path d="M209.656 47.4004H246.438L244.745 55.6486H226.346L232.372 57.428L227.175 82.8378H215.174L220.692 55.6486H207.963L209.656 47.4004Z" fill="white"/>
<path d="M246.692 82.8378L253.903 47.4004H264.719L263.026 55.6486H256.696L262.671 57.428L257.525 82.8378H246.709H246.692Z" fill="white"/>
<path d="M303.837 47.3994C304.768 47.3994 305.631 47.599 306.443 47.9815C307.256 48.364 307.933 48.8961 308.475 49.5446C309.016 50.2098 309.423 50.9582 309.66 51.7896C309.897 52.6377 309.914 53.5025 309.71 54.4171L304.92 78.0642C304.649 79.4777 303.955 80.6252 302.838 81.5065C301.721 82.3879 300.434 82.8202 298.996 82.8202H272.827C271.862 82.8202 270.982 82.6207 270.169 82.2382C269.357 81.8557 268.697 81.3236 268.155 80.675C267.613 80.0265 267.241 79.2615 267.004 78.3968C266.767 77.5321 266.733 76.6507 266.902 75.7361L271.743 52.1388C272.014 50.7253 272.708 49.5779 273.809 48.6965C274.909 47.8152 276.178 47.3828 277.617 47.3828H303.837V47.3994ZM275.45 55.6477L281.476 57.427L278.277 73.1751C278.21 73.541 278.294 73.8736 278.531 74.1563C278.768 74.439 279.073 74.5886 279.462 74.5886H301.162L295.187 72.8093L298.386 57.0612C298.454 56.6953 298.369 56.3627 298.132 56.08C297.895 55.7973 297.574 55.6477 297.201 55.6477H275.45Z" fill="white"/>
<path d="M349.184 47.4004H360L352.789 82.8378H334.187L328.465 54.8005H322.084L328.11 56.5799L322.744 82.8545H311.928L319.139 47.417H337.792L343.513 75.4543L349.184 47.417V47.4004Z" fill="white"/>
</g>
<defs>
<clipPath id="clip0_41_141">
<rect width="360" height="82" fill="white" transform="translate(0 0.835938)"/>
</clipPath>
</defs>
</svg>
