<svg width="24" height="24" viewBox="0 0 24 24" fill="none" xmlns="http://www.w3.org/2000/svg">
<path d="M0.666667 0.667316C0.0333333 1.30065 0 1.76732 0 11.6673C0 21.5673 0.0333333 22.034 0.666667 22.6673C1.3 23.3007 1.76667 23.334 11.6667 23.334C21.5667 23.334 22.0333 23.3007 22.6667 22.6673C23.3 22.034 23.3333 21.5673 23.3333 11.6673C23.3333 1.76732 23.3 1.30065 22.6667 0.667316C22.0333 0.0339832 21.5667 0.000650406 11.6667 0.000650406C1.76667 0.000650406 1.3 0.0339832 0.666667 0.667316ZM22.1333 1.53398C22.4333 2.33398 22.3667 21.434 22.0667 21.934C21.8333 22.234 19.5 22.334 11.4667 22.2673L1.16667 22.1673L1.06667 11.8673C1 3.83398 1.1 1.50065 1.4 1.26732C1.63333 1.13398 6.36667 1.00065 11.8667 1.00065C20.7333 1.00065 21.9667 1.06732 22.1333 1.53398Z" fill="black"/>
<path d="M14.8001 5.36732C14.4001 5.56732 13.9001 6.10066 13.7001 6.53399C13.3668 7.33399 13.2668 7.33399 8.80009 7.33399C4.66675 7.33399 4.30009 7.40066 4.40009 7.90066C4.50009 8.43399 5.03342 8.50066 8.80009 8.60066C13.0668 8.70066 13.1001 8.70066 14.0001 9.66732C16.5668 12.4007 20.7001 9.00066 18.2668 6.20066C17.4001 5.20066 15.8334 4.86732 14.8001 5.36732ZM17.2668 6.73399C17.9668 7.43399 17.7668 9.00066 16.9334 9.30066C15.6334 9.76732 14.6668 9.13399 14.6668 7.80066C14.6668 6.93399 15.2668 6.33399 16.1668 6.33399C16.5668 6.33399 17.0334 6.50066 17.2668 6.73399Z" fill="black"/>
<path d="M8.03281 13.634C7.36614 14.334 6.73281 14.6673 5.79947 14.734C4.89947 14.8007 4.46614 15.0007 4.39947 15.4007C4.29947 15.9007 4.53281 16.0007 5.79947 16.0007C7.09947 16.0007 7.39947 16.134 7.69947 16.8007C8.06614 17.6007 9.26614 18.334 10.1661 18.334C11.0661 18.334 12.2661 17.6007 12.6328 16.8007C12.9661 16.034 13.1328 16.0007 16.0328 16.0007C18.7328 16.0007 19.0328 15.934 18.9328 15.4007C18.8328 14.934 18.3661 14.834 16.0328 14.734C13.4328 14.634 13.1661 14.5673 12.3328 13.6673C11.0328 12.3007 9.29947 12.2673 8.03281 13.634ZM11.0328 14.0007C11.4661 14.234 11.6661 14.7007 11.6661 15.5007C11.6661 16.7673 10.9328 17.234 9.46614 16.8673C8.79947 16.7007 8.66614 16.434 8.66614 15.5007C8.66614 13.9673 9.69947 13.3007 11.0328 14.0007Z" fill="black"/>
</svg>
