<svg width="24" height="24" viewBox="0 0 24 24" fill="none" xmlns="http://www.w3.org/2000/svg">
<path d="M9.63333 0.532925C6.1 1.59959 3 5.76626 3 9.39959C3 12.7996 4.53333 15.7996 9.13333 21.2663C11.8 24.4663 12.2 24.4663 14.8667 21.2329C19.4667 15.7996 21 12.7996 21 9.39959C21 5.69959 17.8667 1.59959 14.2333 0.499592C12.2 -0.100409 11.6333 -0.100409 9.63333 0.532925ZM14.6 1.83293C15.2667 2.13293 16.4 2.93293 17.1 3.59959C20.2 6.59959 20.6667 9.86626 18.6 14.0329C17.3667 16.4329 12.6667 22.4996 12 22.4996C11.3333 22.4996 6.63333 16.4329 5.4 14.0329C3.33333 9.86626 3.8 6.59959 6.9 3.59959C9.16667 1.39959 12 0.766258 14.6 1.83293Z" fill="black"/>
<path d="M10.1 5.99937C8.93333 6.69937 8 8.19937 8 9.3327C8 10.5327 9.03333 12.3327 10.0333 12.8327C12.7 14.2327 16 12.266 16 9.26603C16 7.46603 13.8 5.3327 11.9333 5.3327C11.5 5.3327 10.7 5.6327 10.1 5.99937ZM13.9 7.39937C14.7333 8.16603 14.9333 9.86603 14.3333 10.966C13.8 11.9994 12.1667 12.4994 11 11.9994C9.76667 11.4994 9.33333 10.766 9.33333 9.29937C9.33333 6.96603 12.1667 5.76603 13.9 7.39937Z" fill="black"/>
</svg>
