<svg width="24" height="24" viewBox="0 0 24 24" fill="none" xmlns="http://www.w3.org/2000/svg">
<path d="M4.23333 0.932682C3.93333 1.26601 3.06667 3.03268 2.33333 4.83268L1 8.09935V15.2327C1 21.8993 1.03333 22.366 1.66667 22.9993C2.3 23.6327 2.76667 23.666 12 23.666C21.2333 23.666 21.7 23.6327 22.3333 22.9993C22.9667 22.366 23 21.8993 23 15.2327V8.09935L21.6667 4.83268C20.9333 3.03268 20.0667 1.26601 19.7667 0.932682C19.2667 0.399347 18.5667 0.332682 12 0.332682C5.43333 0.332682 4.73333 0.399347 4.23333 0.932682ZM11.3333 3.66601V5.99935H7.16667C4.86667 5.99935 3 5.93268 3 5.86601C3 5.79935 3.43333 4.73268 4 3.53268L4.96667 1.33268H8.16667H11.3333V3.66601ZM20 3.53268C20.5667 4.73268 21 5.79935 21 5.86601C21 5.93268 19.1333 5.99935 16.8333 5.99935H12.6667V3.66601V1.33268H15.8333H19.0333L20 3.53268ZM21.6 7.73268C22.1667 8.29935 22.1667 21.6993 21.6 22.266C21.0333 22.8327 2.96667 22.8327 2.4 22.266C1.83333 21.6993 1.83333 8.29935 2.4 7.73268C2.96667 7.16602 21.0333 7.16602 21.6 7.73268Z" fill="black"/>
<path d="M14.0993 18.1987C13.866 18.2987 13.666 18.5987 13.666 18.8654C13.666 19.232 14.266 19.332 16.5327 19.332C19.066 19.332 19.366 19.2654 19.266 18.732C19.166 18.2654 18.766 18.1654 16.8327 18.0987C15.5327 18.0654 14.2993 18.132 14.0993 18.1987Z" fill="black"/>
</svg>
